# xmcd
#
# Track frame offsets:
#	150
#	11943
#	28876
#	38444
#	49791
#	60823
#	72278
#	85526
#	96379
#	105838
#	120664
#	131559
#	142317
#	155788
#	167332
#	178493
#
# Disc length: 2541 seconds
#
# Revision: 1
# Processed by: cddbd v1.5.1PL2 Copyright (c) Steve Scherf et al.
# Submitted via: audiograbber 1.83.01
#
DISCID=d609eb10
DTITLE=Verschiedene - The County Club Collection - Country Favourites
DYEAR=2005
DGENRE=Country
TTITLE0=Jonny Cash - Thanks a lot
TTITLE1=Connie Francis - Love is stange
TTITLE2=Frankie Laine - Gunfight at the O K Corral
TTITLE3=Don Gibson - Sea of Heartbreak
TTITLE4=Patsy Cline - A stranger in my arms
TTITLE5=Roy Rogers - Hi - Ho silver
TTITLE6=Ferlin husky - Country music is there to say
TTITLE7=Gene Autry - Can't shake the sands of Texas from my shoes
TTITLE8=Hank Locklin - Geisha girl
TTITLE9=John Anderson - Country comfort
TTITLE10=Buck Owens - Above and beyond
TTITLE11=Justin Tubb - Take a letter Miss Gray
TTITLE12=Lynn Anderson - Keep me in mind
TTITLE13=Holly Dunn - Are you ever gonna love me
TTITLE14=Conway Twitty - Hello Darlin
TTITLE15=Willie Nelson - Shelter of your arms
EXTD=
EXTT0=
EXTT1=
EXTT2=
EXTT3=
EXTT4=
EXTT5=
EXTT6=
EXTT7=
EXTT8=
EXTT9=
EXTT10=
EXTT11=
EXTT12=
EXTT13=
EXTT14=
EXTT15=
PLAYORDER=
